<svg width="123" height="45" viewBox="0 0 123 45" fill="none" xmlns="http://www.w3.org/2000/svg">
<rect x="1" y="0.499969" width="121" height="44" rx="4" fill="#2D70FD"/>
<rect x="1" y="0.499969" width="121" height="44" rx="4" stroke="#2D70FD"/>
<path d="M37.3656 20.6662H35.3713C35.2946 20.24 35.1519 19.865 34.9431 19.5412C34.7343 19.2173 34.4786 18.9424 34.176 18.7166C33.8735 18.4907 33.5347 18.3203 33.1597 18.2052C32.7889 18.0902 32.3948 18.0326 31.9772 18.0326C31.2229 18.0326 30.5475 18.2223 29.9509 18.6015C29.3585 18.9808 28.8898 19.5369 28.5446 20.2699C28.2037 21.0028 28.0333 21.8977 28.0333 22.9545C28.0333 24.0199 28.2037 24.919 28.5446 25.652C28.8898 26.3849 29.3607 26.9389 29.9573 27.3139C30.5539 27.6889 31.225 27.8764 31.9708 27.8764C32.3841 27.8764 32.7762 27.821 33.1469 27.7102C33.5219 27.5951 33.8607 27.4268 34.1632 27.2052C34.4658 26.9836 34.7215 26.713 34.9303 26.3934C35.1433 26.0696 35.2904 25.6988 35.3713 25.2812L37.3656 25.2876C37.2591 25.9311 37.0524 26.5234 36.7456 27.0646C36.4431 27.6015 36.0531 28.066 35.5759 28.4581C35.1029 28.8459 34.5617 29.1463 33.9523 29.3593C33.3429 29.5724 32.6781 29.6789 31.958 29.6789C30.8245 29.6789 29.8145 29.4105 28.9281 28.8735C28.0418 28.3324 27.3429 27.5589 26.8316 26.5532C26.3245 25.5476 26.0709 24.348 26.0709 22.9545C26.0709 21.5568 26.3266 20.3572 26.838 19.3558C27.3493 18.3501 28.0482 17.5788 28.9345 17.0419C29.8209 16.5007 30.8287 16.2301 31.958 16.2301C32.6526 16.2301 33.3003 16.3302 33.9012 16.5305C34.5063 16.7265 35.0496 17.0163 35.5311 17.3998C36.0127 17.7791 36.4111 18.2436 36.7264 18.7933C37.0418 19.3387 37.2549 19.963 37.3656 20.6662ZM43.8914 29.6981C42.9709 29.6981 42.1676 29.4872 41.4816 29.0653C40.7955 28.6434 40.2628 28.0532 39.8835 27.2947C39.5043 26.5362 39.3146 25.6498 39.3146 24.6356C39.3146 23.6172 39.5043 22.7265 39.8835 21.9637C40.2628 21.201 40.7955 20.6086 41.4816 20.1868C42.1676 19.7649 42.9709 19.5539 43.8914 19.5539C44.8118 19.5539 45.6151 19.7649 46.3012 20.1868C46.9872 20.6086 47.5199 21.201 47.8992 21.9637C48.2784 22.7265 48.4681 23.6172 48.4681 24.6356C48.4681 25.6498 48.2784 26.5362 47.8992 27.2947C47.5199 28.0532 46.9872 28.6434 46.3012 29.0653C45.6151 29.4872 44.8118 29.6981 43.8914 29.6981ZM43.8977 28.0937C44.4943 28.0937 44.9887 27.936 45.3807 27.6207C45.7727 27.3054 46.0625 26.8856 46.25 26.3615C46.4418 25.8373 46.5377 25.2599 46.5377 24.6292C46.5377 24.0028 46.4418 23.4275 46.25 22.9034C46.0625 22.375 45.7727 21.951 45.3807 21.6314C44.9887 21.3118 44.4943 21.152 43.8977 21.152C43.2969 21.152 42.7983 21.3118 42.402 21.6314C42.01 21.951 41.7181 22.375 41.5263 22.9034C41.3388 23.4275 41.245 24.0028 41.245 24.6292C41.245 25.2599 41.3388 25.8373 41.5263 26.3615C41.7181 26.8856 42.01 27.3054 42.402 27.6207C42.7983 27.936 43.2969 28.0937 43.8977 28.0937ZM52.6926 23.6704V29.5H50.7814V19.6818H52.6159V21.2798H52.7374C52.9632 20.7599 53.3169 20.3423 53.7984 20.027C54.2842 19.7116 54.8957 19.5539 55.633 19.5539C56.302 19.5539 56.8879 19.6946 57.3908 19.9758C57.8936 20.2528 58.2835 20.6662 58.5605 21.2159C58.8375 21.7656 58.976 22.4453 58.976 23.2549V29.5H57.0648V23.4851C57.0648 22.7734 56.8794 22.2173 56.5087 21.8167C56.1379 21.4119 55.6287 21.2095 54.981 21.2095C54.5378 21.2095 54.1436 21.3054 53.7984 21.4971C53.4575 21.6889 53.1869 21.9701 52.9867 22.3409C52.7906 22.7074 52.6926 23.1505 52.6926 23.6704ZM65.8549 29.6981C64.9046 29.6981 64.0864 29.4829 63.4003 29.0525C62.7185 28.6179 62.1944 28.0191 61.8279 27.2564C61.4614 26.4936 61.2782 25.62 61.2782 24.6356C61.2782 23.6385 61.4657 22.7585 61.8407 21.9957C62.2157 21.2287 62.7441 20.6299 63.4259 20.1995C64.1077 19.7691 64.911 19.5539 65.8357 19.5539C66.5814 19.5539 67.2462 19.6924 67.83 19.9694C68.4138 20.2422 68.8847 20.6257 69.2427 21.12C69.6049 21.6143 69.8201 22.1917 69.8882 22.8522H68.0282C67.9259 22.392 67.6915 21.9957 67.325 21.6633C66.9628 21.3309 66.477 21.1647 65.8677 21.1647C65.335 21.1647 64.8684 21.3054 64.4678 21.5866C64.0715 21.8636 63.7625 22.2599 63.5409 22.7755C63.3194 23.2869 63.2086 23.892 63.2086 24.5909C63.2086 25.3068 63.3172 25.9247 63.5346 26.4446C63.7519 26.9645 64.0587 27.3672 64.455 27.6527C64.8556 27.9382 65.3265 28.0809 65.8677 28.0809C66.2299 28.0809 66.558 28.0149 66.852 27.8828C67.1503 27.7464 67.3996 27.5525 67.5999 27.3011C67.8044 27.0497 67.9472 26.7471 68.0282 26.3934H69.8882C69.8201 27.0284 69.6134 27.5951 69.2682 28.0937C68.9231 28.5923 68.4607 28.9843 67.8811 29.2699C67.3059 29.5554 66.6304 29.6981 65.8549 29.6981ZM74.0233 16.4091V29.5H72.1121V16.4091H74.0233ZM82.994 25.4282V19.6818H84.9116V29.5H83.0323V27.7997H82.9301C82.7042 28.3238 82.342 28.7606 81.8434 29.1101C81.3491 29.4552 80.7333 29.6278 79.9961 29.6278C79.3654 29.6278 78.8072 29.4893 78.3214 29.2123C77.8399 28.9311 77.4606 28.5156 77.1836 27.9659C76.9109 27.4162 76.7745 26.7365 76.7745 25.9268V19.6818H78.6857V25.6967C78.6857 26.3657 78.8711 26.8984 79.2419 27.2947C79.6126 27.691 80.0941 27.8892 80.6865 27.8892C81.0444 27.8892 81.4002 27.7997 81.7539 27.6207C82.1119 27.4417 82.4081 27.1711 82.6424 26.8089C82.8811 26.4467 82.9983 25.9865 82.994 25.4282ZM87.6596 29.5V19.6818H89.5708V29.5H87.6596ZM88.6248 18.1669C88.2924 18.1669 88.0069 18.0561 87.7683 17.8345C87.5339 17.6086 87.4167 17.3402 87.4167 17.0291C87.4167 16.7137 87.5339 16.4453 87.7683 16.2237C88.0069 15.9978 88.2924 15.8849 88.6248 15.8849C88.9572 15.8849 89.2406 15.9978 89.4749 16.2237C89.7136 16.4453 89.8329 16.7137 89.8329 17.0291C89.8329 17.3402 89.7136 17.6086 89.4749 17.8345C89.2406 18.0561 88.9572 18.1669 88.6248 18.1669ZM92.322 29.5V19.6818H94.1693V21.2414H94.2716C94.4506 20.713 94.7659 20.2976 95.2176 19.995C95.6736 19.6882 96.1892 19.5348 96.7645 19.5348C96.8838 19.5348 97.0244 19.539 97.1864 19.5476C97.3526 19.5561 97.4825 19.5667 97.5763 19.5795V21.4076C97.4996 21.3863 97.3632 21.3629 97.1672 21.3373C96.9712 21.3075 96.7752 21.2926 96.5791 21.2926C96.1274 21.2926 95.7247 21.3885 95.371 21.5802C95.0216 21.7677 94.7446 22.0298 94.5401 22.3664C94.3355 22.6988 94.2333 23.0781 94.2333 23.5042V29.5H92.322Z" fill="white"/>
</svg>
